<?xml version="1.0" encoding="UTF-8"?>
<svg version="1.1" xmlns="http://www.w3.org/2000/svg" width="131" height="131">
<path d="M0 0 C0.86367187 0.43570312 1.72734375 0.87140625 2.6171875 1.3203125 C15.74162892 8.62053372 25.17669014 19.69973459 30 34 C34.15236533 49.89762726 32.29914688 65.70261771 24.0078125 79.9609375 C15.51598376 92.81432808 3.17789882 101.72128742 -12 105 C-29.60424826 106.32081962 -44.6431141 105.14043224 -59 94 C-69.87077515 84.62592578 -77.85336211 73.21193964 -79.22753906 58.57666016 C-80.2634164 41.10030198 -77.36688323 26.86243601 -65.67578125 13.3046875 C-49.44132819 -3.77079688 -21.90168072 -11.05382632 0 0 Z M-49.4375 33.625 C-52.54935337 38.35501712 -52.61835077 42.41766664 -52 48 C-49.79464531 52.41070939 -47.07769265 55.24755746 -43 58 C-41.67680676 58.37154883 -40.34394416 58.71241873 -39 59 C-39.03480469 60.24716797 -39.03480469 60.24716797 -39.0703125 61.51953125 C-39.08835937 62.60621094 -39.10640625 63.69289062 -39.125 64.8125 C-39.14820313 65.89144531 -39.17140625 66.97039062 -39.1953125 68.08203125 C-39.23023717 71.19402868 -39.23023717 71.19402868 -37 74 C-35.515 73.505 -35.515 73.505 -34 73 C-34 59.8 -34 46.6 -34 33 C-26.74 33 -19.48 33 -12 33 C-12.03480469 35.32417969 -12.06960937 37.64835937 -12.10546875 40.04296875 C-12.12889045 42.30345431 -12.14709207 44.56392616 -12.16479492 46.82446289 C-12.17984622 48.39093107 -12.20029207 49.95735736 -12.22631836 51.52368164 C-12.26286433 53.78021606 -12.27976261 56.03619153 -12.29296875 58.29296875 C-12.30845261 58.98899704 -12.32393646 59.68502533 -12.33988953 60.40214539 C-12.34139615 64.79255982 -11.70835821 67.52235238 -9 71 C-5.50875983 73.32749345 -4.10777749 73.50299316 0 73 C2.83491939 70.93127504 3.82469988 69.6427671 4.75 66.25 C4.8325 65.5075 4.915 64.765 5 64 C4.01 63.34 3.02 62.68 2 62 C1.01 62.495 1.01 62.495 0 63 C0 64.32 0 65.64 0 67 C-1.66611905 67.042721 -3.33382885 67.04063832 -5 67 C-7.04492343 64.95507657 -6.20924607 60.69548742 -6.24609375 57.87890625 C-6.27902796 56.20507281 -6.31223968 54.53124482 -6.34570312 52.85742188 C-6.39318011 50.20633651 -6.43760684 47.55527391 -6.47680664 44.90405273 C-6.51642134 42.35376766 -6.56798868 39.80394098 -6.62109375 37.25390625 C-6.6295079 36.45803604 -6.63792206 35.66216583 -6.64659119 34.84217834 C-6.57850222 30.45320517 -6.57850222 30.45320517 -9 27 C-13.16734562 26.57577919 -17.34160231 26.62841139 -21.52880859 26.62939453 C-23.59689031 26.62505893 -25.66277035 26.58886132 -27.73046875 26.55078125 C-36.62456896 26.52469884 -43.10542614 26.80584353 -49.4375 33.625 Z " fill="#F9D800" transform="translate(88,14)"/>
<path d="M0 0 C0 6.27 0 12.54 0 19 C-6 17 -6 17 -8 14 C-8.73353539 9.44525699 -8.5511201 5.96446017 -6.25 1.9375 C-4 0 -4 0 0 0 Z " fill="#D8BC00" transform="translate(49,48)"/>
</svg>
